<?xml version="1.0" encoding="UTF-8" standalone="no"?>
<svg
   version="1.0"
   width="1254.000000pt"
   height="1254.000000pt"
   viewBox="0 0 1254.000000 1254.000000"
   preserveAspectRatio="xMidYMid meet"
   id="svg15"
   xmlns="http://www.w3.org/2000/svg"
   xmlns:svg="http://www.w3.org/2000/svg">
  <defs
     id="defs15" />
  <g
     transform="translate(0.000000,1254.000000) scale(0.100000,-0.100000)"
     fill="#000000"
     stroke="none"
     id="g15">
    <path
       d="m 6174,10364 c -194,-178 -498,-520 -686,-774 -211,-284 -398,-609 -508,-882 l -44,-107 75,-78 c 204,-214 439,-544 564,-793 29,-57 40,-71 47,-60 5,8 50,87 99,175 143,252 341,543 501,737 l 55,67 50,-62 c 192,-238 429,-593 569,-854 21,-40 41,-73 44,-73 3,0 38,62 79,137 130,238 290,462 497,695 l 104,117 -50,126 c -118,295 -287,588 -521,900 -208,278 -420,508 -736,798 l -31,29 z"
       id="path1"
       style="display:inline;fill:#ffffff;fill-opacity:1" />
    <path
       d="M3088 9445 c-3 -3 2 -42 10 -87 23 -131 20 -460 -7 -728 -46 -465 -22 -838 79 -1208 l22 -82 162 -78 c393 -190 735 -444 1012 -750 46 -51 84 -88 84 -83 0 5 -9 61 -20 125 -11 64 -25 191 -32 282 -32 461 77 1016 323 1631 28 71 47 133 44 143 -10 31 -238 244 -362 337 -365 275 -783 439 -1264 497 -26 3 -48 3 -51 1z"
       id="path2"
       style="fill:#ffffff;fill-opacity:1" />
    <path
       d="M9335 9434 c-397 -61 -747 -192 -1060 -398 -151 -99 -370 -287 -464 -398 l-31 -36 60 -157 c115 -297 215 -611 255 -805 80 -381 84 -877 9 -1199 -3 -16 41 24 136 122 217 225 396 371 642 525 113 71 397 218 455 236 24 8 34 37 77 226 48 213 58 301 63 590 4 226 1 317 -16 515 -29 333 -27 614 5 768 7 32 5 32 -131 11z"
       id="path3"
       style="fill:#ffffff;fill-opacity:1" />
    <path
       d="M4870 8401 c-20 -39 -97 -244 -139 -372 -119 -367 -175 -701 -175 -1034 0 -394 77 -722 251 -1068 110 -221 245 -417 416 -607 74 -82 253 -249 277 -258 4 -1 -19 48 -50 110 -185 363 -262 751 -231 1153 26 323 98 614 243 982 l60 151 -36 84 c-70 159 -191 365 -325 548 -64 88 -218 275 -254 308 l-25 24 -12 -21z"
       id="path6"
       style="fill:#ffffff;fill-opacity:1" />
    <path
       d="M7593 8337 c-211 -241 -362 -467 -494 -741 l-70 -145 56 -141 c164 -410 245 -792 245 -1162 0 -352 -86 -708 -241 -995 -27 -51 -47 -93 -43 -93 3 0 51 39 106 86 253 220 520 585 653 895 48 110 109 306 140 444 46 207 57 335 52 585 -7 279 -32 449 -114 750 -48 178 -197 601 -211 599 -4 0 -39 -37 -79 -82z"
       id="path7"
       style="fill:#ffffff;fill-opacity:1" />
    <path
       d="M6207 8303 c-357 -484 -637 -1050 -753 -1527 -137 -565 -97 -1062 122 -1498 67 -134 109 -200 195 -309 123 -155 282 -290 426 -361 l83 -41 72 36 c175 87 370 271 512 482 60 88 167 306 199 406 113 346 136 685 71 1069 -23 137 -87 388 -129 510 -116 333 -320 739 -503 1005 -95 137 -223 315 -227 315 -1 0 -32 -39 -68 -87z"
       id="path8"
       style="fill:#ffffff;fill-opacity:1" />
    <path
       d="M1845 7453 c-92 -8 -257 -37 -360 -63 -120 -30 -275 -87 -275 -100 0 -5 35 -33 78 -63 155 -110 313 -270 431 -436 38 -53 127 -193 198 -312 236 -392 365 -563 555 -735 143 -129 258 -193 393 -218 338 -65 603 -149 1074 -343 141 -58 267 -109 281 -115 15 -5 -6 18 -50 58 -229 205 -461 485 -609 738 -127 215 -244 483 -335 762 -52 164 -128 450 -142 541 -4 24 -12 47 -18 51 -22 17 -213 95 -326 133 -217 72 -462 109 -705 107 -82 -1 -168 -3 -190 -5z"
       id="path9"
       style="fill:#ffffff;fill-opacity:1" />
    <path
       d="M10270 7449 c-217 -22 -468 -90 -684 -185 l-105 -46 -11 -56 c-42 -208 -140 -549 -214 -743 -195 -515 -435 -881 -804 -1229 -67 -63 -120 -116 -118 -117 2 -2 72 26 157 63 336 144 544 222 759 284 141 41 385 99 500 120 106 19 241 105 392 248 144 137 306 356 470 637 212 361 319 508 479 659 52 48 129 113 172 144 42 31 77 58 77 62 0 19 -223 93 -373 124 -217 45 -475 57 -697 35z"
       id="path10"
       style="fill:#ffffff;fill-opacity:1" />
    <path
       d="M3260 7113 c0 -34 81 -328 131 -478 235 -699 609 -1222 1121 -1564 227 -152 587 -296 853 -341 133 -23 395 -41 395 -27 0 4 -4 7 -9 7 -19 0 -227 133 -323 207 -290 222 -515 493 -764 918 -162 279 -267 416 -494 649 -160 163 -324 301 -500 418 -117 77 -305 185 -372 213 -36 14 -38 14 -38 -2z"
       id="path11"
       style="fill:#ffffff;fill-opacity:1" />
    <path
       d="M9155 7062 c-499 -261 -919 -661 -1225 -1167 -146 -242 -258 -410 -349 -525 -181 -229 -498 -509 -702 -622 -43 -23 -79 -46 -79 -51 0 -11 218 1 340 19 224 32 410 92 645 209 337 167 609 389 851 695 274 348 467 758 612 1305 51 189 54 205 45 205 -5 0 -66 -31 -138 -68z"
       id="path12"
       style="fill:#ffffff;fill-opacity:1" />
    <path
       d="M2042 5460 c-233 -18 -475 -77 -670 -163 -93 -41 -228 -116 -281 -156 l-24 -18 95 -32 c249 -83 461 -232 813 -572 462 -447 763 -672 1140 -855 252 -122 458 -181 720 -205 148 -13 371 -7 515 15 482 74 996 349 1434 767 96 92 266 279 266 293 0 3 -21 3 -47 0 -67 -8 -454 12 -598 31 -146 19 -323 54 -510 101 -260 65 -459 137 -760 274 -537 245 -821 345 -1235 435 -91 20 -194 42 -230 50 -152 33 -442 49 -628 35z"
       id="path13"
       style="fill:#ffffff" />
    <path
       d="m 10185,5463 c -215,-11 -386,-38 -646,-103 -365,-91 -636,-190 -1084,-397 -438,-203 -654,-282 -950,-348 -252,-56 -359,-68 -669,-71 -160,-2 -296,-6 -303,-8 -7,-3 -13,-10 -13,-15 0,-20 177,-216 276,-308 559,-516 1219,-789 1836,-759 400,20 742,131 1111,363 243,153 424,305 789,659 413,401 590,529 853,615 114,37 117,27 -31,115 -245,145 -531,229 -864,254 -129,10 -170,10 -305,3 z"
       id="path14"
       style="display:inline;fill:#ffffff;fill-opacity:1" />
    <path
       id="path17"
       style="fill:#ffffff;fill-opacity:1;stroke-width:0.9975;stroke-linecap:round"
       d="m 6277.119,4301.3095 a 500,500 0 0 1 -500.0097,-499.9951 500,500 0 0 1 500.0097,-500.0097 500,500 0 0 1 499.9952,500.0097 500,500 0 0 1 -499.9952,499.9951 z" />
  </g>
</svg>
